PathFileType	4	(X/Y/Z)	s05c0201.trc
DataRate	CameraRate	NumFrames	NumMarkers	Units	OrigDataRate	OrigDataStartFrame	OrigNumFrames
200	200	6	50	mm	200	1500	2000
Frame#	Time	racr			lacr			c7			jug			rlel			rdr			llel			ldr			s2			lic			ric			lasi			rasi			rpsi			lpsi			rgt			lgt			rth1			rth2			rth3			rth4			rlfc			rmfc			rsh1			rsh2			rsh3			rsh4			rlmal			rmmal			rcal			rtoe			rmt5			lth1			lth2			lth4			lth3			llfc			lmfc			lsh1			lsh2			lsh3			lsh4			llmal			lmmal			lcal			ltoe			lmt5			SBIKE			LBIKE			RBIKE			
		X1	Y1	Z1	X2	Y2	Z2	X3	Y3	Z3	X4	Y4	Z4	X5	Y5	Z5	X6	Y6	Z6	X7	Y7	Z7	X8	Y8	Z8	X9	Y9	Z9	X10	Y10	Z10	X11	Y11	Z11	X12	Y12	Z12	X13	Y13	Z13	X14	Y14	Z14	X15	Y15	Z15	X16	Y16	Z16	X17	Y17	Z17	X18	Y18	Z18	X19	Y19	Z19	X20	Y20	Z20	X21	Y21	Z21	X22	Y22	Z22	X23	Y23	Z23	X24	Y24	Z24	X25	Y25	Z25	X26	Y26	Z26	X27	Y27	Z27	X28	Y28	Z28	X29	Y29	Z29	X30	Y30	Z30	X31	Y31	Z31	X32	Y32	Z32	X33	Y33	Z33	X34	Y34	Z34	X35	Y35	Z35	X36	Y36	Z36	X37	Y37	Z37	X38	Y38	Z38	X39	Y39	Z39	X40	Y40	Z40	X41	Y41	Z41	X42	Y42	Z42	X43	Y43	Z43	X44	Y44	Z44	X45	Y45	Z45	X46	Y46	Z46	X47	Y47	Z47	X48	Y48	Z48	X49	Y49	Z49	X50	Y50	Z50	
1500	7.5000	454.218068	1297.634815	-175.072644	452.166248	1308.873379	-426.618857	423.372166	1383.841359	-298.993812	369.262112	1234.096668	-304.729560	478.589299	1087.685287	16.028641	663.011923	964.548957	-89.120712	444.037502	1063.413125	-599.525553	655.462605	962.464902	-473.994748	-144.330555	1170.549231	-267.486123	-12.915872	1200.708668	-422.123642	8.527465	1200.249024	-137.095775	41.108173	1149.010124	-393.013985	51.370748	1145.033060	-169.457918	-109.424895	1221.542978	-228.395466	-114.789203	1224.690560	-313.283965	-15.534756	1075.134275	-108.422485	-71.835607	1084.995365	-442.194880	92.986858	1024.938550	-100.050647	179.537621	1005.210845	-106.491319	242.973229	943.968360	-110.698520	194.477124	1036.106512	-121.771770	353.714938	851.563277	-141.795907	334.269446	843.362611	-250.983285	266.348427	788.291471	-110.734293	220.296062	713.442158	-120.523342	146.660100	669.846794	-120.124794	241.907272	694.160050	-146.161436	55.478685	575.577109	-120.683411	79.697250	586.703489	-202.488012	-18.463060	596.077062	-165.571058	177.198186	373.247394	-163.047775	90.826305	429.018701	-98.068549	21.345157	970.333714	-467.424370	94.468989	924.923507	-468.139872	121.612281	947.063840	-454.368090	133.469552	842.925318	-465.897372	216.769994	722.721191	-436.334229	201.864840	704.073330	-331.631607	194.013193	596.373351	-467.923226	216.514138	512.423260	-457.845899	194.090976	426.765840	-460.559276	246.873963	514.830285	-433.622207	201.122526	306.454902	-453.167563	210.737403	330.684136	-377.978413	142.184253	268.350486	-412.480369	435.049192	240.304587	-401.729155	330.183806	214.464061	-470.559704	-264.872626	894.700416	-287.002496	-53.468627	78.978069	-475.125062	-53.456302	79.156419	-77.489492	
1501	7.5050	453.824008	1296.502006	-173.609595	452.733084	1308.542831	-424.884130	423.630608	1383.168197	-297.115724	369.230193	1233.545527	-303.637024	477.353752	1086.073744	16.892647	663.065211	964.945613	-88.700896	444.081264	1063.971023	-598.781153	655.643715	962.728555	-473.881095	-143.329434	1170.446155	-270.175149	-11.165606	1200.397407	-424.175988	7.540906	1201.235630	-138.535725	42.572802	1148.540276	-394.186121	51.285704	1146.262929	-170.629230	-109.666385	1222.217969	-230.784607	-113.838073	1224.581915	-316.049296	-15.069886	1078.221721	-109.350631	-71.018255	1084.006375	-443.525383	93.506296	1029.957873	-101.139803	180.650928	1012.341409	-106.725940	245.549340	952.612669	-110.501389	194.910532	1043.519186	-122.196302	358.590615	862.448877	-141.296669	340.494396	854.237268	-248.351416	271.491724	798.882693	-110.511043	225.971813	723.668732	-120.347010	152.488955	679.629018	-120.305328	247.965989	704.318714	-145.557599	62.240274	584.382146	-121.240839	88.425152	595.123420	-202.362013	-11.760878	604.697666	-166.482870	184.099861	381.972426	-163.013064	97.531237	438.051828	-98.412914	19.414836	967.864499	-468.764983	90.998584	920.223032	-469.189715	119.087699	941.985375	-456.209419	128.190097	837.592420	-467.270933	208.702869	715.587774	-437.591088	194.204644	697.392931	-332.281162	186.745697	589.007478	-468.271194	209.621084	505.485502	-458.352957	187.379163	419.571436	-460.124082	239.652150	508.113474	-434.159386	195.465975	299.854125	-452.697307	205.815043	324.051595	-378.785158	136.543248	262.569547	-411.886294	429.089087	230.541213	-401.606970	323.818856	206.208736	-470.359329	-264.929802	894.730319	-287.138061	-53.463423	78.968546	-475.118919	-53.440876	79.189381	-77.479233	
1502	7.5100	453.459897	1295.542173	-172.066306	453.393120	1308.090125	-423.126566	423.858715	1382.588238	-295.282555	369.280402	1233.046046	-302.482387	476.237052	1084.314373	17.686407	663.207573	965.425024	-88.231718	444.151186	1064.422653	-597.962067	655.903716	962.985030	-473.725315	-142.387987	1170.535289	-273.058628	-9.200352	1200.099841	-426.146195	6.425804	1202.032621	-140.219378	44.016946	1147.910592	-395.301943	51.295570	1147.410157	-171.810565	-110.158058	1222.929588	-233.734285	-112.806934	1224.391345	-318.936151	-14.807718	1081.138993	-110.249385	-70.191241	1082.941352	-444.794444	93.684130	1034.959163	-102.406481	181.474394	1019.368420	-106.948596	248.344349	960.579585	-110.696967	195.031170	1050.706323	-122.727033	362.991225	873.185133	-141.012041	345.890123	865.135457	-247.545283	276.469754	809.344227	-110.326795	231.577175	733.781217	-120.056750	158.543395	689.251696	-120.440807	253.825730	714.306551	-144.992926	69.117868	592.731532	-121.624864	95.015548	603.481345	-202.931923	-5.229869	612.611037	-166.444418	192.209545	390.709537	-162.971304	104.986088	446.130290	-98.856112	17.492624	965.489630	-470.191870	87.844504	916.035974	-471.077020	116.538202	937.087809	-458.106496	122.974432	832.371054	-469.038501	200.707122	708.649325	-438.831174	186.567493	691.064582	-333.932543	179.141552	582.326691	-469.177938	202.392149	498.828279	-458.773462	180.272894	412.740057	-459.451869	232.502281	501.654510	-434.663630	189.413440	293.485968	-452.381134	200.622278	317.893156	-379.488315	130.418212	257.117594	-411.334250	422.592097	221.322145	-401.542929	316.922882	198.285794	-470.116282	-264.796444	894.744992	-287.341486	-53.470292	78.976651	-475.139419	-53.451607	79.197304	-77.500879	
1503	7.5150	453.084971	1294.498146	-170.419899	454.124867	1307.617747	-421.410551	424.136321	1381.908364	-293.394313	369.379009	1232.449892	-301.267017	475.136822	1082.624356	18.672085	663.222364	965.661568	-88.028642	444.286398	1064.857362	-597.119166	656.246994	963.272671	-473.481353	-142.018849	1170.397802	-275.666478	-7.337387	1199.128284	-427.258215	5.268630	1202.828253	-141.824134	45.470462	1147.085333	-396.379188	51.363498	1148.572317	-172.958522	-110.188768	1223.369115	-235.301148	-112.027805	1224.236703	-321.609421	-14.737801	1083.925947	-111.213969	-69.357424	1081.760436	-446.007348	93.740933	1039.647682	-103.344710	182.011377	1026.210135	-107.205790	250.113999	968.950753	-110.024619	194.865072	1057.635934	-123.434656	367.214370	883.932446	-140.726596	350.894676	874.996765	-249.685946	281.297463	819.518600	-110.226975	237.144703	743.554157	-119.771928	164.597205	698.376514	-120.590980	259.366166	724.301317	-144.560838	76.087804	600.538834	-121.896181	101.852426	611.847339	-203.395570	1.870804	619.937381	-166.750917	200.323836	399.527892	-162.678679	112.793217	453.856413	-99.210298	15.561577	963.428490	-471.683266	84.730243	911.996701	-473.093029	114.018498	932.368105	-460.243644	117.728279	827.473703	-471.173471	192.727202	702.243293	-440.020536	179.389919	685.196330	-334.881584	171.171675	576.044524	-469.939511	194.765562	492.687540	-459.306295	172.831498	406.466658	-459.058024	225.040194	495.719775	-435.383484	182.810511	287.624345	-452.107345	195.163734	312.224912	-380.071907	123.886848	251.995696	-410.934422	415.527193	212.569072	-401.529602	309.528877	190.867447	-469.989522	-264.744423	894.751629	-287.352725	-53.467446	78.976989	-475.154257	-53.463539	79.229897	-77.511445	
1504	7.5200	452.719025	1293.618506	-168.726841	454.867455	1307.147335	-419.533149	424.386230	1381.270370	-291.545323	369.541418	1231.858320	-299.966184	474.091060	1081.062739	19.746429	663.200289	965.873691	-87.901220	444.690438	1065.333776	-596.139511	656.615162	963.553471	-473.132571	-141.664585	1170.212680	-277.815662	-5.349167	1198.719861	-429.450362	4.137952	1203.491703	-143.457381	46.937248	1146.165637	-397.332416	51.353225	1149.759603	-174.128249	-109.654580	1222.344675	-240.252579	-111.020955	1223.919740	-324.380183	-14.783557	1086.525047	-112.137397	-68.497846	1080.512046	-447.117550	93.706369	1044.328587	-103.956132	182.288175	1032.880010	-107.580314	251.590413	977.191027	-109.430306	194.213976	1063.418893	-125.258056	370.839068	893.975200	-140.318456	356.027733	885.118337	-250.112567	286.059831	829.389297	-110.079204	242.576935	753.074494	-119.590622	170.379518	707.461666	-120.420016	265.135141	733.770135	-144.194613	83.096485	607.707702	-121.972696	108.325798	619.064018	-202.999486	8.737324	626.974785	-166.646601	207.675666	406.511799	-164.675727	120.797780	461.215712	-99.454448	13.813902	961.353437	-472.923968	81.710284	908.298288	-475.160948	111.546318	927.818889	-462.424551	112.542421	822.973441	-473.614459	184.936052	696.161256	-440.982787	172.478483	679.679966	-335.793815	163.096934	570.239302	-470.850017	186.755282	487.024337	-459.879444	165.129816	400.771011	-459.360975	217.400077	490.159808	-436.402836	175.832835	282.105227	-451.925589	189.444052	307.062959	-380.519926	116.858543	247.486460	-410.655488	407.997154	204.285246	-401.526891	301.659237	183.775742	-469.915564	-264.703705	894.745514	-287.559125	-53.474850	78.968140	-475.153537	-53.466721	79.257151	-77.516358	
1505	7.5250	452.393394	1292.684622	-167.087550	454.996741	1306.082258	-415.456647	424.675064	1380.502181	-289.591737	369.135765	1231.347050	-298.286311	473.217682	1079.487575	20.830991	663.123489	965.929024	-87.893398	444.662066	1065.775221	-595.735550	656.993174	963.765988	-472.732397	-141.467510	1170.038383	-279.847839	-3.431235	1197.864408	-430.991916	3.072123	1204.157958	-145.010714	48.289399	1145.108914	-398.240893	51.114893	1150.587632	-175.298263	-109.656735	1222.154494	-243.357933	-109.728462	1223.377418	-327.262611	-15.136638	1089.003047	-113.091414	-67.650006	1079.230174	-448.190498	93.572809	1048.791623	-104.294875	182.313832	1039.176807	-108.027525	252.820400	985.099299	-109.164167	193.581866	1069.762954	-126.214335	374.920827	904.517227	-141.577919	360.141817	894.609380	-250.096284	290.472042	838.968403	-110.093872	247.892354	761.986113	-119.450519	176.276766	715.572594	-120.412759	270.768909	742.813702	-143.784809	90.170511	614.288688	-122.003343	115.068596	625.859923	-202.953830	16.065560	633.075442	-166.285091	217.139107	415.100777	-164.331026	129.769138	468.249695	-99.483094	12.173469	959.604342	-474.312367	78.486643	904.470480	-476.417298	109.138623	923.517175	-464.439664	107.221353	818.628058	-476.087913	177.496528	690.714457	-441.951408	166.057695	674.505475	-336.459315	154.805249	565.171465	-471.568549	178.595019	481.920095	-460.567730	157.033212	395.644260	-459.855342	209.496673	485.127287	-437.524110	168.549770	277.105096	-451.923808	183.467904	302.423391	-380.816395	109.431281	243.240447	-410.504847	399.968735	196.599406	-401.384414	293.427945	177.281588	-469.790248	-264.745244	894.764658	-287.595918	-53.467083	78.966598	-475.178651	-53.509073	79.416331	-77.377947	
